<?xml version="1.0" encoding="UTF-8"?>
<!DOCTYPE svg PUBLIC "-//W3C//DTD SVG 1.1//EN" "http://www.w3.org/Graphics/SVG/1.1/DTD/svg11.dtd">
<!-- Creator: CorelDRAW 2017 -->
<svg xmlns="http://www.w3.org/2000/svg" xml:space="preserve" width="46mm" height="20mm" version="1.1" style="shape-rendering:geometricPrecision; text-rendering:geometricPrecision; image-rendering:optimizeQuality; fill-rule:evenodd; clip-rule:evenodd"
viewBox="0 0 4600 2000"
 xmlns:xlink="http://www.w3.org/1999/xlink">
 <defs>
  <style type="text/css">
   <![CDATA[
    .fil5 {fill:#B254E0}
    .fil1 {fill:#F66070}
    .fil2 {fill:#FE79B5}
    .fil4 {fill:#FEBB27}
    .fil3 {fill:#FF7AB7}
    .fil0 {fill:white}
   ]]>
  </style>
 </defs>
 <g id="Слой_x0020_1">
  <metadata id="CorelCorpID_0Corel-Layer"/>
  <path class="fil0" d="M198.96 1638.24c40.06,44.57 188.77,112.31 255.42,112.79 680,4.9 3213.51,-33.83 3516.94,28.99 45.05,7.4 319.82,51.57 479.37,102.16 26.35,6.79 56.78,7.1 76.2,-12.96 25.19,-26.06 13.52,-40.82 -10.51,-87.88 -39.39,-72.72 -113.29,-176.45 -128.13,-247.11 -26.86,-128.09 -1.17,-249.33 -1.17,-378.2 0,-295.65 -37.36,-598.75 -233.41,-830.59 -58.26,-46.69 -104.86,-76.07 -179.92,-91.33 -105.25,-21.4 -3473.12,-369.85 -3780.58,226.91 -124.9,242.41 -228.41,891.91 5.79,1177.22z"/>
  <path class="fil1" d="M1488.32 1262.09c0,89.46 99.02,87.7 129.97,51.01 65.51,-77.68 -59.85,-180.63 -114.58,-107.81 -8.56,11.39 -15.39,37.35 -15.39,56.8z"/>
  <path class="fil2" d="M3426.14 1381.58c0,46.88 -8.78,69.94 45.14,69.94 35.98,0 66.91,-73.86 77.68,-100.54 8.89,-22.09 15.35,-45.02 21.59,-68.65 12.3,-46.5 22.86,-101.78 29.98,-150.51 3.6,-24.64 8.23,-52.01 10.82,-79.41 2.94,-30.98 8.15,-50.13 -8.84,-72.8 -29.18,-39 -90.11,-33.01 -111.6,-11.55 -15.98,15.95 -36.06,140.65 -39.58,165.73 -10.08,71.96 -25.19,176.39 -25.19,247.79z"/>
  <path class="fil2" d="M3507.37 785.96c0,39.66 40.4,83.47 74.45,83.47 25.16,0 46.46,-2.3 64.22,-26.03 25.24,-33.79 23.44,-77.98 -4.95,-109.93 -14.1,-15.86 -35.61,-26.47 -59.27,-26.47 -16.37,0 -42.94,16.2 -50.98,25.72 -11.27,13.38 -23.47,34.97 -23.47,53.24z"/>
  <path class="fil3" d="M1264.89 447.58c-105.67,0 -102.79,57.4 -111.83,122.8l-50.58 642.03c0.09,15.19 -2.21,20.47 -2.37,33.72l-3.94 141.73c4.13,21.38 24.02,22.73 48.2,26.37 44.11,6.65 50.56,-42.18 58.3,-83.58 8.04,-43.02 12.07,-83.47 17.75,-128.9 5.14,-41.1 9.99,-87.48 14.73,-129.65l62.92 -557.5c1.51,-10.31 4.46,-23.56 4.94,-31.29 1.32,-21.36 -17.41,-35.73 -38.12,-35.73z"/>
  <path class="fil3" d="M2701.99 1216.92c0,31.6 4.67,68.84 4.54,87.96l4.36 90.39c0.85,10.05 -0.42,21.35 0.11,31.48l13.2 189.84c1.38,13.54 -4.36,24.64 14.71,32.68 25.3,10.68 96.6,7.55 100.57,-21.88l0.13 -254.8c0,-47.22 7.78,-120.47 0.96,-165.64 -5.48,-36.19 10.39,-136.67 -37.05,-136.67 -13.2,0 -35.37,9.98 -47.12,13.81 -19.34,6.32 -25.29,11.62 -34.18,28.98 -11.38,22.3 -20.23,69.84 -20.23,103.85z"/>
  <path class="fil3" d="M2724.55 905.57l0 18.05c0,90.72 151.15,87.69 151.15,-13.54 0,-39.87 -32.14,-78.96 -67.68,-78.96 -23.92,0 -44.92,6.56 -60.43,23.04 -9.05,9.64 -23.04,33.86 -23.04,51.41z"/>
  <path class="fil4" d="M1923.62 1067.89c0,48.5 7.07,86.28 47.33,115.1 62.31,44.59 124.48,31.81 167.92,41.9 38.63,8.96 120.9,50.44 120.9,95.68 0,77.19 -108.38,87.4 -192.7,32.52 -25.71,-16.73 -60.04,-46.06 -98.33,-46.06 -21.55,0 -42.87,15.26 -42.87,36.1 0,47 45.36,94.5 73.13,116.39 86.8,68.41 224.55,60.25 297.45,-5.26 18.09,-16.25 36.81,-33.11 49.08,-56.95 26.48,-51.43 24.79,-65.99 24.79,-119.61 0,-76.34 -56.9,-132.18 -126.13,-146.86 -56.21,-11.92 -81.42,-7.65 -120.79,-14.57 -89.73,-15.75 -82.99,-83.79 -54.82,-106.46 11.87,-9.55 25.84,-13.3 45.81,-15.13 46.65,-4.27 121.64,54.6 186.59,-18.69 37.8,-42.64 -16.4,-81.99 -53.41,-96.68 -48.66,-19.32 -82.34,-23.49 -136.7,-23.49 -100.89,0 -187.25,146.63 -187.25,212.07z"/>
  <path class="fil4" d="M3022.31 1460.49c43.65,0 54.48,-55.97 60.93,-94.72 4.69,-28.04 15.08,-114.83 15.77,-142.16l79.93 -709.71 21.59 -136.31c0,-38.83 -88.34,-69.07 -120.22,-41.28 -10.09,8.78 -10.83,13.47 -13.84,29.03 -26.36,135.55 -50.7,388.26 -66.31,527.04 -2.93,26.08 -5.18,50.16 -7.38,76.1l-22.22 252.99c-1.43,17.7 0.31,32.86 -3.71,59.49l-7.83 118.5c-1.32,16.68 -6.77,20.68 3.86,34.73 6.83,9.02 13.05,15.33 23.55,19.31 6.67,2.53 27.41,6.99 35.88,6.99z"/>
  <path class="fil1" d="M1585.23 1386.08c-37.76,0 -47.27,-0.37 -81.28,-17.99 -77.46,-40.15 -103.1,-209.33 -31.55,-302.39 29.39,-38.23 63.97,-63.15 124.11,-63.15 32.57,0 75.51,20.43 92.33,36.26l7.35 8.45c8.36,11.11 10.26,18.18 14.47,32.91 16.8,58.87 5.84,200.81 -18.4,243.74 -20.61,36.52 -64.81,62.17 -107.03,62.17zm153.41 -455.72c-22.56,0 -30.73,-6.31 -49.63,-15.79 -47.03,-23.6 -96.06,-33.84 -153.41,-33.84 -82.95,0 -130.57,47.6 -172.4,111.86 -59.01,90.67 -86.71,212.96 -49.02,326.13 19.48,58.48 58.95,116.17 110.94,146.25 67.71,39.18 126.07,35.88 197.06,12.21 30.24,-10.09 52.75,-22.32 71.34,-9.88 0,38.81 10.68,42.86 51.89,42.86 12.25,0 28.9,-7.72 35.41,-14.22 26.09,-26.1 54.36,-260.2 58.93,-297.52l20.07 -182.98c4.05,-31.58 4.15,-61.68 8.81,-92.88 6.47,-43.34 -58.11,-70.31 -96.7,-26.59 -17.32,19.61 -17.59,34.39 -33.29,34.39z"/>
  <path class="fil1" d="M3245.67 1582.35c31.09,0 41.83,3.45 51.75,-45.27 12.52,-61.59 26.28,-202.99 33.6,-273.21 2.47,-23.56 3.6,-48.69 6.54,-70.17 2.12,-15.5 0.95,-54.74 0.63,-71.6 -0.47,-23.71 -10.58,-45.1 -33.86,-45.1 -65.59,0 -89.3,16.91 -102.79,70.92 -6.22,24.99 -8.31,50.62 -11.64,76.34l-9.64 206.94c0.11,29.74 -7.17,88.4 6.73,121.86 9.31,22.38 27.56,29.29 58.68,29.29z"/>
  <path class="fil1" d="M3223.15 909.97c0,110.85 151.16,86.04 151.16,-18.05 0,-76.11 -89.75,-87.62 -128.96,-38.72 -10.63,13.25 -22.2,33.82 -22.2,56.77z"/>
  <path class="fil5" d="M678.31 567.08c0,-23.91 -1.07,-50.35 3.52,-73.19 3.58,-17.88 5.07,-18.65 18.08,-27.03 65.44,-42.15 207.85,-13.47 244.55,50.65 34.52,60.33 33.44,154.16 14.93,220.11 -12.95,46.15 -42.64,74.67 -86.28,96.45 -32.94,16.44 -50.31,19.53 -88.77,19.53 -24.7,0 -56.01,-15.88 -64.75,-32.26 -11.49,-21.53 -16.69,-49.2 -22.3,-76.97 -9.07,-44.89 -18.98,-130.42 -18.98,-177.29zm-205.3 -151.15c0,18.44 9.03,61.34 28.76,75.01 19.76,13.7 27.82,-1.82 44.18,18.99 27.41,34.84 42.49,231.39 46.8,287.09l13.51 153.44c1.82,24.04 5.82,51.27 6.63,76.85 0.76,24.3 6.14,51.74 6.76,76.71 0.62,24.66 5.53,52.63 6.73,76.75 1.88,38.17 15.85,185.2 23.21,227.2 10.11,57.69 14.6,71.71 53.53,72.82 56.73,1.6 85.73,20.15 85.73,-87.99 0,-56.16 -13.96,-236.72 -23.84,-307.8l-6.51 -74.86c-2.21,-14.76 1.03,-11.92 1.03,-25.69 59.54,-13.87 160.34,-56.19 209.28,-99.79 20.5,-18.27 38.89,-37.45 52.42,-62.64 15.63,-29.1 24.53,-47.82 32.5,-84.82 20.58,-95.59 7.06,-250.65 -54.48,-319.6 -93.87,-105.17 -248.42,-79.61 -374.53,-53 -23.04,4.86 -118.42,25.28 -139.01,36.96 -4.5,2.56 -12.7,9.56 -12.7,14.37z"/>
  <path class="fil5" d="M3755.57 1507.93l11.28 0c49.9,0 56.51,-84.32 58.71,-128.55 0.39,-8.03 1.77,-25.74 3.17,-35.18 3.44,-23.27 0.98,-49.27 4.16,-72.53 2.69,-19.75 3.65,-48.27 5.79,-68.66 6.3,-59.85 6.99,-153.05 77.07,-153.05 53,0 80.09,5.11 89.04,62.11 12.51,79.68 -12.33,207.04 -12.33,296.6 0,60.89 -0.93,94.75 76.7,94.75 28.6,0 39.26,-16.98 46.59,-39.13 20.3,-61.4 21.09,-218.98 21.09,-285.74 0,-84.95 -26.49,-210.53 -85.06,-269.12 -43.69,-43.68 -98.24,-48.97 -151.4,-14.73 -11.48,7.4 -36.91,27.82 -48.39,30.91 -28.6,7.68 -9.55,-29.1 -28.05,-47.8 -24.44,-24.7 -81.89,-27.03 -90.01,-2.91l-12.2 132.18c-0.39,7.41 0.48,14.88 -0.34,22.24 -0.87,7.88 -2.06,11.61 -1.96,22.85 0.43,44.69 -9.28,140.12 -9.02,185.01l-6.11 138.26c-3.81,27.77 -1.09,64.99 -2.91,94.21 -1.14,17.66 -3.92,21.43 13.49,29.33 10.21,4.63 25.69,8.95 40.69,8.95z"/>
  <path class="fil5" d="M2302.66 716c0,68.56 91.43,63.17 142.13,63.17 0,67.89 -2.25,128.31 -2.25,196.27l2.33 275.17c0.03,16.58 -0.18,33.2 -0.15,49.78l6.5 146.91c2.45,23.05 -3.12,27.69 16.07,35.82 26.12,11.07 90.15,13.56 114.5,1.56 14.57,-7.17 12.09,-11.25 11.92,-30.94 -0.25,-29.22 2.24,-54.44 2.24,-85.74 0,-59.92 2.26,-112.57 2.26,-171.46l-2.26 -421.88c14.07,0 17.55,-2.32 31.51,-2.34 48.57,-0.07 105.69,-2.68 147.2,-28.78 26.51,-16.66 31.11,-25.87 31.11,-50.1 0,-22.43 -17.01,-38.1 -33.02,-45.97 -39.53,-19.43 -102.88,-10.43 -145.22,-10.43 -26.68,0 -54.78,-0.87 -81.29,-0.08l-76.63 2.33c-48.84,0 -97.26,-0.32 -135.43,27.01 -12.19,8.73 -31.52,29.26 -31.52,49.7z"/>
  <path class="fil5" d="M772.34 729.84c0,21.1 5.85,40.13 16.27,51.42 34.82,37.69 121.35,26.19 121.35,-51.42 0,-53.97 -82.55,-101.92 -120,-54.57 -9.6,12.14 -17.62,33.5 -17.62,54.57z"/>
 </g>
</svg>
