<svg width="170" height="67" viewBox="0 0 170 67" fill="none" xmlns="http://www.w3.org/2000/svg">
<path fill-rule="evenodd" clip-rule="evenodd" d="M5.28995 57.6224C6.80402 59.307 12.4244 61.8673 14.9434 61.8854C40.6444 62.0705 136.399 60.6069 147.867 62.9812C149.57 63.2607 159.955 64.9302 165.985 66.8422C166.981 67.099 168.131 67.1107 168.865 66.3523C169.817 65.3675 169.376 64.8096 168.468 63.0308C166.979 60.2823 164.186 56.3618 163.625 53.6914C162.61 48.8501 163.581 44.2678 163.581 39.3971C163.581 28.2231 162.169 16.7674 154.759 8.00472C152.557 6.24011 150.796 5.12962 147.959 4.55281C143.981 3.74397 16.6916 -9.4255 5.07089 13.1292C0.350284 22.2912 -3.5619 46.839 5.28995 57.6224Z" fill="white"/>
<path fill-rule="evenodd" clip-rule="evenodd" d="M54.0215 43.4059C54.0215 46.787 57.764 46.7204 58.9336 45.3337C61.4098 42.3977 56.6715 38.5068 54.6031 41.259C54.2797 41.6893 54.0215 42.6706 54.0215 43.4059Z" fill="#F66070"/>
<path fill-rule="evenodd" clip-rule="evenodd" d="M127.262 47.9221C127.262 49.6936 126.93 50.5654 128.968 50.5654C130.328 50.5654 131.497 47.7738 131.904 46.7652C132.24 45.9305 132.484 45.0638 132.72 44.1709C133.185 42.4132 133.584 40.3238 133.853 38.4821C133.989 37.5509 134.164 36.5164 134.262 35.4809C134.373 34.3099 134.57 33.586 133.928 32.7292C132.825 31.2552 130.522 31.4819 129.71 32.2928C129.106 32.8958 128.347 37.6089 128.214 38.5568C127.833 41.2764 127.262 45.2235 127.262 47.9221Z" fill="#FE79B5"/>
<path fill-rule="evenodd" clip-rule="evenodd" d="M130.332 25.4102C130.332 26.9093 131.859 28.5651 133.146 28.5651C134.097 28.5651 134.902 28.4781 135.573 27.5812C136.527 26.3042 136.459 24.6338 135.386 23.4263C134.853 22.8269 134.04 22.4258 133.146 22.4258C132.527 22.4258 131.523 23.0381 131.219 23.3982C130.793 23.9036 130.332 24.7198 130.332 25.4102Z" fill="#FE79B5"/>
<path fill-rule="evenodd" clip-rule="evenodd" d="M45.5768 12.6211C41.5829 12.6211 41.6919 14.7907 41.3502 17.2623L39.4386 41.5281C39.442 42.1022 39.355 42.3018 39.3488 42.8025L39.2002 48.1594C39.3561 48.9675 40.108 49.0182 41.0217 49.1559C42.6889 49.4073 42.9329 47.5617 43.2253 45.9969C43.5293 44.3711 43.6813 42.8421 43.8961 41.1253C44.0905 39.5717 44.2737 37.8187 44.453 36.225L46.831 15.1543C46.8879 14.7646 46.9996 14.2638 47.0177 13.9714C47.0675 13.1643 46.3597 12.6211 45.5768 12.6211Z" fill="#FF7AB7"/>
<path fill-rule="evenodd" clip-rule="evenodd" d="M99.8926 41.6987C99.8926 42.8928 100.069 44.3002 100.064 45.023L100.229 48.4393C100.261 48.819 100.213 49.2463 100.233 49.6291L100.732 56.8042C100.784 57.3158 100.567 57.7353 101.288 58.0394C102.244 58.4429 104.939 58.3247 105.089 57.2122L105.094 47.5822C105.094 45.7973 105.388 43.029 105.13 41.3216C104.923 39.9539 105.523 36.1562 103.73 36.1562C103.231 36.1562 102.393 36.5333 101.949 36.6782C101.218 36.9171 100.993 37.1175 100.657 37.7736C100.227 38.6162 99.8926 40.4133 99.8926 41.6987Z" fill="#FF7AB7"/>
<path fill-rule="evenodd" clip-rule="evenodd" d="M100.745 29.931V30.6131C100.745 34.042 106.458 33.9274 106.458 30.1016C106.458 28.5947 105.243 27.1172 103.9 27.1172C102.996 27.1172 102.202 27.3651 101.616 27.988C101.274 28.3521 100.745 29.2678 100.745 29.931Z" fill="#FF7AB7"/>
<path fill-rule="evenodd" clip-rule="evenodd" d="M70.4736 36.0659C70.4736 37.899 70.7408 39.3269 72.2628 40.4161C74.6176 42.1014 76.9673 41.6185 78.6092 41.9997C80.0691 42.3386 83.1786 43.9063 83.1786 45.616C83.1786 48.5336 79.0825 48.9192 75.8955 46.8451C74.9238 46.2127 73.6263 45.1044 72.179 45.1044C71.3647 45.1044 70.5589 45.6809 70.5589 46.4687C70.5589 48.2449 72.2733 50.0404 73.3226 50.8675C76.6033 53.4534 81.8096 53.145 84.565 50.6689C85.2486 50.0548 85.9561 49.4175 86.4201 48.5164C87.4209 46.5727 87.3568 46.0225 87.3568 43.9959C87.3568 41.1106 85.2063 39 82.5899 38.4453C80.4653 37.9948 79.5125 38.1559 78.0245 37.8946C74.6333 37.299 74.8878 34.7275 75.9526 33.8708C76.4013 33.5098 76.9293 33.3681 77.6838 33.299C79.4471 33.1375 82.2812 35.3627 84.7362 32.5927C86.1649 30.9808 84.1163 29.4937 82.7174 28.9383C80.8783 28.2081 79.6053 28.0508 77.5509 28.0508C73.7376 28.0508 70.4736 33.5926 70.4736 36.0659Z" fill="#FEBB27"/>
<path fill-rule="evenodd" clip-rule="evenodd" d="M111.999 50.9045C113.649 50.9045 114.058 48.789 114.302 47.3242C114.479 46.2647 114.872 42.9842 114.898 41.9514L117.919 15.1279L118.735 9.97593C118.735 8.50829 115.396 7.36537 114.191 8.41569C113.81 8.74738 113.782 8.9246 113.668 9.51294C112.672 14.6361 111.752 24.1874 111.162 29.4324C111.051 30.4183 110.966 31.3281 110.883 32.3087L110.043 41.8707C109.989 42.5394 110.055 43.1123 109.903 44.1191L109.607 48.5977C109.557 49.2281 109.351 49.3794 109.753 49.9103C110.011 50.2513 110.246 50.4896 110.643 50.6402C110.895 50.7356 111.679 50.9045 111.999 50.9045Z" fill="#FEBB27"/>
<path fill-rule="evenodd" clip-rule="evenodd" d="M57.6842 48.092C56.2571 48.092 55.8975 48.0782 54.6123 47.412C51.6845 45.8944 50.7156 39.5002 53.4197 35.983C54.5307 34.5382 55.8374 33.5965 58.1105 33.5965C59.3417 33.5965 60.9646 34.3687 61.6003 34.9669L61.8779 35.2863C62.194 35.7061 62.2658 35.9735 62.4247 36.5301C63.06 38.7552 62.6455 44.1199 61.7296 45.7423C60.9505 47.1224 59.28 48.092 57.6842 48.092ZM63.4824 30.8679C62.6299 30.8679 62.3209 30.6295 61.6065 30.271C59.829 29.3792 57.9761 28.992 55.8083 28.992C52.6732 28.992 50.8734 30.7912 49.2926 33.2201C47.0623 36.6469 46.0152 41.2689 47.44 45.5461C48.1762 47.7563 49.6678 49.9368 51.6328 51.0737C54.1921 52.5545 56.3976 52.4296 59.0806 51.535C60.2236 51.1538 61.0746 50.6914 61.777 51.1617C61.777 52.6285 62.1806 52.7818 63.7382 52.7818C64.2011 52.7818 64.8307 52.49 65.0765 52.2442C66.0627 51.2579 67.131 42.4098 67.3039 40.9992L68.0625 34.0837C68.2154 32.8899 68.2191 31.7525 68.3954 30.5732C68.6401 28.9351 66.1993 27.9159 64.7405 29.568C64.086 30.3092 64.0758 30.8679 63.4824 30.8679Z" fill="#F66070"/>
<path fill-rule="evenodd" clip-rule="evenodd" d="M120.441 55.5102C121.616 55.5102 122.022 55.6405 122.397 53.7989C122.87 51.4713 123.39 46.127 123.667 43.473C123.76 42.5826 123.803 41.6329 123.914 40.8208C123.994 40.2352 123.95 38.7519 123.938 38.1149C123.92 37.2187 123.538 36.4102 122.658 36.4102C120.179 36.4102 119.283 37.0495 118.773 39.0908C118.538 40.0352 118.459 41.004 118.333 41.976L117.969 49.7975C117.973 50.9213 117.698 53.1386 118.223 54.403C118.575 55.249 119.265 55.5102 120.441 55.5102Z" fill="#F66070"/>
<path fill-rule="evenodd" clip-rule="evenodd" d="M119.59 30.0972C119.59 34.287 125.303 33.3493 125.303 29.415C125.303 26.5384 121.911 26.1034 120.429 27.9516C120.027 28.4524 119.59 29.2298 119.59 30.0972Z" fill="#F66070"/>
<path fill-rule="evenodd" clip-rule="evenodd" d="M23.4069 17.1377C23.4069 16.2341 23.3666 15.2345 23.5398 14.3716C23.6754 13.6958 23.7315 13.6666 24.2234 13.3498C26.6968 11.7567 32.0791 12.8406 33.4662 15.2641C34.771 17.5442 34.7301 21.0907 34.0305 23.5832C33.5408 25.3276 32.4188 26.4056 30.7693 27.2287C29.5243 27.8499 28.8679 27.9667 27.4145 27.9667C26.4807 27.9667 25.2975 27.3667 24.967 26.7476C24.5327 25.9336 24.3365 24.8881 24.1244 23.8385C23.7814 22.1417 23.4069 18.9093 23.4069 17.1377ZM15.6475 11.4248C15.6475 12.122 15.989 13.7432 16.7345 14.26C17.4814 14.7777 17.7859 14.1913 18.4044 14.9776C19.4404 16.2945 20.0104 23.723 20.1731 25.8285L20.6839 31.6276C20.7527 32.5364 20.9039 33.5654 20.9342 34.5322C20.963 35.4507 21.1663 36.4877 21.1899 37.4315C21.2132 38.3635 21.399 39.4205 21.4441 40.3322C21.5154 41.7748 22.0432 47.3321 22.3215 48.9195C22.7037 51.0999 22.8731 51.6298 24.3446 51.6715C26.4889 51.7322 27.585 52.4333 27.585 48.3458C27.585 46.2235 27.0572 39.3991 26.6839 36.7125L26.4376 33.8833C26.3541 33.3255 26.4765 33.4327 26.4765 32.9123C28.7269 32.388 32.5369 30.7885 34.3865 29.1406C35.1614 28.4501 35.8563 27.7251 36.3677 26.7731C36.9586 25.6733 37.2949 24.9658 37.596 23.5674C38.3737 19.9545 37.8628 14.094 35.5369 11.488C31.9892 7.51292 26.1477 8.47921 21.3816 9.48479C20.5108 9.66846 16.9059 10.4403 16.1277 10.8817C15.9574 10.9784 15.6475 11.243 15.6475 11.4248Z" fill="#B254E0"/>
<path fill-rule="evenodd" clip-rule="evenodd" d="M139.713 52.6975H140.139C142.025 52.6975 142.275 49.5103 142.358 47.8388C142.373 47.5352 142.425 46.8659 142.478 46.509C142.608 45.6297 142.515 44.6471 142.635 43.7677C142.737 43.0214 142.773 41.9435 142.854 41.1728C143.092 38.9107 143.118 35.3881 145.767 35.3881C147.77 35.3881 148.794 35.5813 149.132 37.7358C149.605 40.7471 148.666 45.5607 148.666 48.9458C148.666 51.247 148.631 52.5269 151.565 52.5269C152.646 52.5269 153.049 51.8852 153.326 51.0478C154.093 48.7272 154.123 42.7715 154.123 40.2484C154.123 37.0375 153.122 32.2913 150.908 30.0768C149.257 28.426 147.195 28.2262 145.186 29.5202C144.752 29.7998 143.791 30.5717 143.357 30.6883C142.276 30.9787 142.996 29.5886 142.297 28.8818C141.373 27.9481 139.202 27.8601 138.895 28.7719L138.434 33.7677C138.419 34.0475 138.452 34.3299 138.421 34.6083C138.388 34.906 138.343 35.047 138.347 35.4719C138.363 37.1608 137.996 40.7678 138.006 42.4642L137.775 47.69C137.631 48.7394 137.734 50.146 137.665 51.2507C137.622 51.918 137.517 52.0604 138.175 52.3592C138.561 52.5342 139.146 52.6975 139.713 52.6975Z" fill="#B254E0"/>
<path fill-rule="evenodd" clip-rule="evenodd" d="M84.7998 22.7661C84.7998 25.3574 88.2554 25.1536 90.1717 25.1536C90.1717 27.7195 90.0864 30.0032 90.0864 32.5719L90.1746 42.9717C90.1755 43.5985 90.1679 44.2266 90.1688 44.8534L90.4147 50.4057C90.507 51.2769 90.2968 51.4525 91.0218 51.7598C92.0091 52.1782 94.4291 52.2722 95.3494 51.8188C95.9 51.5475 95.8065 51.3935 95.8001 50.6494C95.7905 49.5447 95.8847 48.5916 95.8847 47.4086C95.8847 45.1439 95.97 43.154 95.97 40.9282L95.8847 24.9831C96.4164 24.9831 96.5481 24.8957 97.0755 24.8949C98.9114 24.8923 101.07 24.7934 102.639 23.8071C103.641 23.1772 103.815 22.8294 103.815 21.9134C103.815 21.0659 103.172 20.4734 102.567 20.1761C101.073 19.4415 98.6786 19.7819 97.0784 19.7817C96.0697 19.7817 95.0077 19.749 94.006 19.7789L91.1097 19.867C89.2636 19.867 87.4335 19.8547 85.9911 20.8877C85.5301 21.2178 84.7998 21.9936 84.7998 22.7661Z" fill="#B254E0"/>
<path fill-rule="evenodd" clip-rule="evenodd" d="M26.9609 23.2893C26.9609 24.0866 27.182 24.8061 27.5758 25.2325C28.8916 26.6572 32.1623 26.2226 32.1623 23.2893C32.1623 21.2493 29.0422 19.4371 27.6269 21.2266C27.2638 21.6857 26.9609 22.4928 26.9609 23.2893Z" fill="#B254E0"/>
</svg>
